# File created by Blade
# Date/Time:  Mon Sep 22 17:38:34 2014
# Frame Rate: 120.000 fps
#------------------------------------------------------
:FULLY-SPECIFIED
:DEGREES
2948
root 3.012781 38.351445 4.875783 11.433216 23.935372 27.594799
RightUpLeg 8.073274 -13.485951 -20.531287
RightLeg -6.005986 -0.000000 0.000000
RightFoot -14.491580 -28.951829 11.092447
RightToeBase 4.952258 -0.000000 -0.000000
LeftUpLeg -1.826535 21.564746 9.791187
LeftLeg 126.098972 -0.000000 -0.000000
LeftFoot 28.628719 15.877438 -24.204108
LeftToeBase -2.808942 -0.000000 0.000000
Spine 11.501370 3.298820 -1.978789
RightShoulder 2.650703 -16.581781 -21.062673
RightArm 31.499935 9.564725 48.007002
RightForeArm 3.999522 -0.000000 111.757953
RightHand 1.599205 0.000000 -33.958760
RightHandThumb1 -24.326973 -0.000000 -32.862282
LeftShoulder -29.188394 37.786416 -17.612515
LeftArm 27.714477 -6.613707 -73.439999
LeftForeArm 29.388225 -0.000000 60.520549
LeftHand -30.147203 -0.000000 16.730660
LeftHandThumb1 -26.253704 0.000000 33.147579
Head 14.665613 -8.655963 -22.521495
2949
root 3.003427 38.350170 4.875224 11.335107 23.823685 27.486170
RightUpLeg 8.008833 -13.494813 -20.442888
RightLeg -5.904059 -0.000000 0.000000
RightFoot -14.459591 -28.827006 10.948831
RightToeBase 4.869702 -0.000000 -0.000000
LeftUpLeg -1.740619 21.690341 9.970029
LeftLeg 128.149719 -0.000000 -0.000000
LeftFoot 28.999800 15.247592 -24.647544
LeftToeBase -1.939153 -0.000000 0.000000
Spine 11.537705 3.410981 -1.992245
RightShoulder 2.672799 -16.584000 -21.032841
RightArm 31.617042 9.534265 48.173653
RightForeArm 3.953004 -0.000000 111.571882
RightHand 1.642048 -0.000000 -34.076962
RightHandThumb1 -24.326973 -0.000000 -32.862282
LeftShoulder -29.237326 37.855503 -17.649694
LeftArm 27.727799 -6.628068 -73.398954
LeftForeArm 29.361969 0.000000 60.574523
LeftHand -30.094196 -0.000000 16.775106
LeftHandThumb1 -26.253704 0.000000 33.147579
Head 14.760420 -8.661033 -22.363099
2950
root 2.991541 38.347374 4.876434 11.249687 23.690900 27.372808
RightUpLeg 7.955792 -13.386530 -20.339729
RightLeg -5.877527 -0.000000 0.000000
RightFoot -14.417991 -28.778012 10.862477
RightToeBase 4.780895 -0.000000 -0.000000
LeftUpLeg -1.623708 21.805836 10.161814
LeftLeg 130.025034 -0.000000 -0.000000
LeftFoot 29.919160 14.166824 -24.195980
LeftToeBase -2.929696 -0.000000 0.000000
Spine 11.555733 3.555063 -2.026213
RightShoulder 2.726366 -16.537043 -20.990175
RightArm 31.629556 9.482007 48.315516
RightForeArm 3.863166 -0.000000 111.426429
RightHand 1.625746 -0.000000 -34.204912
RightHandThumb1 -24.326973 -0.000000 -32.862282
LeftShoulder -29.307822 37.917676 -17.657857
LeftArm 27.761481 -6.645059 -73.388382
LeftForeArm 29.366978 -0.000000 60.570470
LeftHand -29.856254 -0.000000 16.822297
LeftHandThumb1 -26.253704 0.000000 33.147579
Head 14.845353 -8.684188 -22.160375
2951
root 2.982366 38.346227 4.878944 11.198287 23.554310 27.306657
RightUpLeg 7.904266 -13.286406 -20.284613
RightLeg -5.862737 -0.000000 0.000000
RightFoot -14.407319 -28.723540 10.830207
RightToeBase 4.810817 -0.000000 -0.000000
LeftUpLeg -1.517989 21.879326 10.256288
LeftLeg 131.698245 -0.000000 -0.000000
LeftFoot 30.533831 13.361242 -24.183667
LeftToeBase -2.961605 -0.000000 0.000000
Spine 11.542965 3.727340 -2.117059
RightShoulder 2.742750 -16.500912 -20.907173
RightArm 31.642658 9.430623 48.469282
RightForeArm 3.790298 -0.000000 111.280156
RightHand 1.607413 -0.000000 -34.218418
RightHandThumb1 -24.326973 -0.000000 -32.862282
LeftShoulder -29.294567 37.929134 -17.575251
LeftArm 27.688306 -6.670917 -73.383458
LeftForeArm 29.491816 0.000000 60.577260
LeftHand -30.139734 -0.000000 16.765690
LeftHandThumb1 -26.253704 0.000000 33.147579
Head 14.957671 -8.745696 -21.947866
2952
root 2.973058 38.345296 4.885684 11.148973 23.431194 27.237799
RightUpLeg 7.865252 -13.201971 -20.224592
RightLeg -5.859100 -0.000000 0.000000
RightFoot -14.403345 -28.656810 10.851779
RightToeBase 4.833440 -0.000000 -0.000000
LeftUpLeg -1.387167 21.882979 10.371683
LeftLeg 133.168884 -0.000000 -0.000000
LeftFoot 31.034852 12.654826 -24.151212
LeftToeBase -2.772938 -0.000000 0.000000
Spine 11.512792 3.864152 -2.197329
RightShoulder 2.759954 -16.536616 -20.850009
RightArm 31.746323 9.372454 48.653854
RightForeArm 3.665522 0.000000 111.116842
RightHand 1.563712 0.000000 -34.325165
RightHandThumb1 -24.326973 -0.000000 -32.862282
LeftShoulder -29.302922 37.954544 -17.516013
LeftArm 27.648938 -6.711151 -73.379822
LeftForeArm 29.372985 -0.000000 60.572542
LeftHand -30.313730 -0.000000 16.672849
LeftHandThumb1 -26.253704 0.000000 33.147579
Head 15.070305 -8.784694 -21.785738
2953
root 2.965860 38.345424 4.893444 11.118760 23.311367 27.188049
RightUpLeg 7.820105 -13.123832 -20.182776
RightLeg -5.852285 -0.000000 0.000000
RightFoot -14.389097 -28.607059 10.859162
RightToeBase 4.868476 -0.000000 -0.000000
LeftUpLeg -1.254902 21.792971 10.454333
LeftLeg 134.415377 -0.000000 -0.000000
LeftFoot 31.380096 12.107679 -24.416930
LeftToeBase -2.266354 -0.000000 0.000000
Spine 11.458048 3.959249 -2.292262
RightShoulder 2.786739 -16.645468 -20.808068
RightArm 31.937525 9.335660 48.843714
RightForeArm 3.605778 -0.000000 110.938705
RightHand 1.565036 -0.000000 -34.384768
RightHandThumb1 -24.326973 -0.000000 -32.862282
LeftShoulder -29.354957 37.969295 -17.500254
LeftArm 27.595539 -6.764211 -73.380887
LeftForeArm 29.351857 -0.000000 60.524371
LeftHand -30.078277 -0.000000 16.874867
LeftHandThumb1 -26.253704 0.000000 33.147579
Head 15.186733 -8.778990 -21.656574
